# xmcd
#
# Track frame offsets:
#	150
#	13650
#	29425
#	54250
#
# Disc length: 1114 seconds
# Revision: 5
# Processed by: cddbd v1.5.2PL0 Copyright (c) Steve Scherf et al.
# Submitted via: dBpowerAMP V12.0
#
DISCID=27045804
DTITLE=Faith Hill - The Way You Love Me
DYEAR=2000
DGENRE=House
TTITLE0=The Way You Love Me [Love To Infinity Radio Edit]
TTITLE1=The Way You Love Me [Radio Remix]
TTITLE2=Never Gona Be Your Lady
TTITLE3=The Way You Love Me [Love To Infinity Master Mix]
EXTD=
EXTT0=
EXTT1=
EXTT2=
EXTT3=
PLAYORDER=
